<?xml version="1.0" encoding="UTF-8"?>
<!-- Source template for /og-main.png. Rendered once with rsvg-convert and -->
<!-- checked in as a static PNG so social previewers (Twitter, Slack, -->
<!-- Discord, LinkedIn) see a proper 1200x630 image. Mirrors the server -->
<!-- renderer in apps/server/src/routes/og.ts (renderMainSvg) — keep in sync. -->
<!-- Works-with row uses real SimpleIcons/svgl brand SVGs. -->
<svg xmlns="http://www.w3.org/2000/svg" width="1200" height="630" viewBox="0 0 1200 630">
  <defs>
    <linearGradient id="accent" x1="0" y1="0" x2="1" y2="1">
      <stop offset="0%" stop-color="#059669" stop-opacity="1"/>
      <stop offset="100%" stop-color="#10b981" stop-opacity="1"/>
    </linearGradient>
  </defs>
  <rect width="1200" height="630" fill="#fafaf8"/>
  <g stroke="#e8e6e0" stroke-width="1">
    <line x1="0" y1="170" x2="1200" y2="170"/>
    <line x1="0" y1="500" x2="1200" y2="500"/>
  </g>

  <!-- Floom mark + wordmark -->
  <g transform="translate(80,90)">
    <g transform="translate(0,0) scale(0.92)">
      <path d="M8 2 h20 l22 22 a3 3 0 0 1 0 4 l-22 22 h-20 a6 6 0 0 1 -6 -6 v-36 a6 6 0 0 1 6 -6 z" fill="url(#accent)"/>
    </g>
    <text x="72" y="40" font-family="Inter, 'Helvetica Neue', Arial, sans-serif" font-weight="700" font-size="36" fill="#0e0e0c">Floom</text>
  </g>

  <!-- Hero copy — mirrors LandingV17Page h1 + hero-sub (2026-04-27 waitlist pick). -->
  <text x="80" y="290" font-family="'DM Serif Display', Georgia, serif" font-size="68" fill="#0e0e0c">AI apps you can <tspan fill="#047857">ship</tspan></text>
  <text x="80" y="370" font-family="'DM Serif Display', Georgia, serif" font-size="68" fill="#0e0e0c">as easily as you write a prompt.</text>
  <text x="80" y="425" font-family="Inter, 'Helvetica Neue', Arial, sans-serif" font-size="26" fill="#585550">The protocol and runtime for agentic work.</text>

  <!-- Works-with row -->
  <text x="80" y="548" font-family="'JetBrains Mono', Menlo, monospace" font-size="14" fill="#585550" letter-spacing="2" font-weight="600">WORKS WITH</text>

  <!-- Anthropic / Claude (A mark), 36px -->
  <g transform="translate(80, 568) scale(1.5)" fill="#0e0e0c">
    <path d="M17.3041 3.541h-3.6718l6.696 16.918H24Zm-10.6082 0L0 20.459h3.7442l1.3693-3.5527h7.0052l1.3693 3.5528h3.7442L10.5363 3.5409Zm-.3712 10.2232 2.2914-5.9456 2.2914 5.9456Z"/>
  </g>
  <text x="130" y="591" font-family="Inter, 'Helvetica Neue', Arial, sans-serif" font-size="18" fill="#0e0e0c" font-weight="500">Claude</text>

  <!-- Cursor, 36px -->
  <g transform="translate(260, 568) scale(1.5)" fill="#0e0e0c">
    <path d="M11.503.131 1.891 5.678a.84.84 0 0 0-.42.726v11.188c0 .3.162.575.42.724l9.609 5.55a1 1 0 0 0 .998 0l9.61-5.55a.84.84 0 0 0 .42-.724V6.404a.84.84 0 0 0-.42-.726L12.497.131a1.01 1.01 0 0 0-.996 0M2.657 6.338h18.55c.263 0 .43.287.297.515L12.23 22.918c-.062.107-.229.064-.229-.06V12.335a.59.59 0 0 0-.295-.51l-9.11-5.257c-.109-.063-.064-.23.061-.23"/>
  </g>
  <text x="310" y="591" font-family="Inter, 'Helvetica Neue', Arial, sans-serif" font-size="18" fill="#0e0e0c" font-weight="500">Cursor</text>

  <!-- OpenAI / ChatGPT, 36px — scale 256->36 = 0.1406 -->
  <g transform="translate(436, 568) scale(0.1406)" fill="#0e0e0c">
    <path d="M239.184 106.203a64.716 64.716 0 0 0-5.576-53.103C219.452 28.459 191 15.784 163.213 21.74A65.586 65.586 0 0 0 52.096 45.22a64.716 64.716 0 0 0-43.23 31.36c-14.31 24.602-11.061 55.634 8.033 76.74a64.665 64.665 0 0 0 5.525 53.102c14.174 24.65 42.644 37.324 70.446 31.36a64.72 64.72 0 0 0 48.754 21.744c28.481.025 53.714-18.361 62.414-45.481a64.767 64.767 0 0 0 43.229-31.36c14.137-24.558 10.875-55.423-8.083-76.483Zm-97.56 136.338a48.397 48.397 0 0 1-31.105-11.255l1.535-.87 51.67-29.825a8.595 8.595 0 0 0 4.247-7.367v-72.85l21.845 12.636c.218.111.37.32.409.563v60.367c-.056 26.818-21.783 48.545-48.601 48.601Zm-104.466-44.61a48.345 48.345 0 0 1-5.781-32.589l1.534.921 51.722 29.826a8.339 8.339 0 0 0 8.441 0l63.181-36.425v25.221a.87.87 0 0 1-.358.665l-52.335 30.184c-23.257 13.398-52.97 5.431-66.404-17.803ZM23.549 85.38a48.499 48.499 0 0 1 25.58-21.333v61.39a8.288 8.288 0 0 0 4.195 7.316l62.874 36.272-21.845 12.636a.819.819 0 0 1-.767 0L41.353 151.53c-23.211-13.454-31.171-43.144-17.804-66.405v.256Zm179.466 41.695-63.08-36.63L161.73 77.86a.819.819 0 0 1 .768 0l52.233 30.184a48.6 48.6 0 0 1-7.316 87.635v-61.391a8.544 8.544 0 0 0-4.4-7.213Zm21.742-32.69-1.535-.922-51.619-30.081a8.39 8.39 0 0 0-8.492 0L99.98 99.808V74.587a.716.716 0 0 1 .307-.665l52.233-30.133a48.652 48.652 0 0 1 72.236 50.391v.205ZM88.061 139.097l-21.845-12.585a.87.87 0 0 1-.41-.614V65.685a48.652 48.652 0 0 1 79.757-37.346l-1.535.87-51.67 29.825a8.595 8.595 0 0 0-4.246 7.367l-.051 72.697Zm11.868-25.58 28.138-16.217 28.188 16.218v32.434l-28.086 16.218-28.188-16.218-.052-32.434Z"/>
  </g>
  <text x="486" y="591" font-family="Inter, 'Helvetica Neue', Arial, sans-serif" font-size="18" fill="#0e0e0c" font-weight="500">ChatGPT</text>

  <!-- Text-only entries: Codex CLI, Any MCP client -->
  <text x="630" y="591" font-family="'JetBrains Mono', Menlo, monospace" font-size="18" fill="#0e0e0c" font-weight="500">Codex CLI</text>
  <text x="780" y="591" font-family="Inter, 'Helvetica Neue', Arial, sans-serif" font-size="18" fill="#585550" font-weight="500">Any MCP client</text>

  <text x="1120" y="591" font-family="'JetBrains Mono', Menlo, monospace" font-size="18" fill="#585550" text-anchor="end">floom.dev</text>
</svg>
